<svg width="26" height="26" viewBox="0 0 26 26" fill="none" xmlns="http://www.w3.org/2000/svg">
<path fill-rule="evenodd" clip-rule="evenodd" d="M20.4157 10.1754C19.8299 9.58958 18.8802 9.58958 18.2944 10.1754L12.9977 15.472L7.70563 10.18C7.11984 9.59419 6.17009 9.59419 5.58431 10.18C4.99852 10.7658 4.99852 11.7155 5.58431 12.3013L11.8179 18.5349C11.8526 18.5784 11.8901 18.6204 11.9304 18.6606C12.1289 18.8591 12.3692 18.9904 12.623 19.0544C13.1228 19.1869 13.6776 19.0572 14.0696 18.6653C14.1222 18.6126 14.1701 18.5571 14.2133 18.4991L20.4157 12.2967C21.0015 11.7109 21.0015 10.7611 20.4157 10.1754Z" fill="white"/>
</svg>
