<svg width="26" height="26" viewBox="0 0 26 26" fill="none" xmlns="http://www.w3.org/2000/svg">
<path fill-rule="evenodd" clip-rule="evenodd" d="M8.80861 13.3129L16.182 5.93955C16.4749 5.64666 16.9498 5.64666 17.2426 5.93955C17.5355 6.23244 17.5355 6.70732 17.2426 7.00021L10.3506 13.8923L17.2426 20.7843C17.5355 21.0772 17.5355 21.5521 17.2426 21.845C16.9497 22.1379 16.4749 22.1379 16.182 21.845L8.80854 14.4715C8.79095 14.4569 8.77387 14.4413 8.75737 14.4248C8.61061 14.2781 8.53738 14.0856 8.5377 13.8933C8.53687 13.7003 8.61009 13.507 8.75736 13.3597C8.77389 13.3432 8.79099 13.3276 8.80861 13.3129Z" fill="white"/>
</svg>
