<svg width="1064" height="600" viewBox="0 0 1064 600" fill="none" xmlns="http://www.w3.org/2000/svg">
<rect width="1064" height="600" fill="#333333"/>
<g clip-path="url(#clip0)">
<path d="M777.958 293.908H772.155V523.745H777.958V293.908Z" fill="#547175"/>
<path d="M831.521 323.198C831.891 403.566 775.491 468.98 775.491 468.98C775.491 468.98 718.493 404.09 718.124 323.722C717.754 243.353 774.153 177.94 774.153 177.94C774.153 177.94 831.152 242.829 831.521 323.198Z" fill="#547175"/>
<path d="M661.911 402.05H658.926V520.26H661.911V402.05Z" fill="#547175"/>
<path d="M689.46 417.114C689.65 458.45 660.643 492.093 660.643 492.093C660.643 492.093 631.327 458.719 631.137 417.384C630.947 376.048 659.955 342.405 659.955 342.405C659.955 342.405 689.27 375.779 689.46 417.114Z" fill="#547175"/>
<path d="M720.748 536C765.415 536 801.624 530.436 801.624 523.571C801.624 516.707 765.415 511.143 720.748 511.143C676.082 511.143 639.873 516.707 639.873 523.571C639.873 530.436 676.082 536 720.748 536Z" fill="#547175"/>
<path d="M727.419 233.906C720.567 222.298 707.011 221.758 707.011 221.758C707.011 221.758 693.801 220.064 685.328 237.742C677.429 254.219 666.529 270.128 683.573 273.986L686.651 264.379L688.558 274.701C690.985 274.876 693.419 274.917 695.85 274.826C714.103 274.235 731.486 274.999 730.926 268.432C730.182 259.703 734.012 245.074 727.419 233.906Z" fill="#141414"/>
<path d="M702.743 255.765C702.743 255.765 711.598 268.193 706.285 278.254C700.972 288.316 718.682 298.969 718.682 298.969L731.67 270.561C731.67 270.561 716.321 260.499 720.453 251.03L702.743 255.765Z" fill="#FBBEBE"/>
<path d="M708.647 261.091C717.124 261.091 723.995 254.202 723.995 245.703C723.995 237.205 717.124 230.315 708.647 230.315C700.17 230.315 693.298 237.205 693.298 245.703C693.298 254.202 700.17 261.091 708.647 261.091Z" fill="#FBBEBE"/>
<path d="M655.529 263.491L668.356 246.9C668.356 246.9 672.872 229.509 679.414 230.391C685.955 231.272 676.83 251.247 676.83 251.247L664.085 269.612L655.529 263.491Z" fill="#FBBEBE"/>
<path d="M720.453 484.214L724.586 506.112L733.441 508.479L731.079 482.439L720.453 484.214Z" fill="#FBBEBE"/>
<path d="M809.593 460.541L825.532 482.439L832.026 485.398L837.339 476.52L821.4 455.806L809.593 460.541Z" fill="#FBBEBE"/>
<path d="M716.911 289.499L707.064 276.503C707.064 276.503 687.985 280.03 686.214 281.805C684.443 283.581 690.937 316.132 690.937 316.132C690.937 316.132 692.118 325.01 697.431 329.744L702.743 333.295L746.428 324.418L748.07 304.931C748.669 297.833 747.781 290.688 745.465 283.954C743.149 277.22 739.456 271.046 734.621 265.826L727.02 266.868L716.911 289.499Z" fill="#578689"/>
<path d="M688.576 282.989L685.624 281.805L672.046 280.622C672.046 280.622 667.324 279.438 668.504 277.071C669.685 274.703 670.866 274.112 668.504 273.52C666.143 272.928 665.553 272.336 666.143 270.561C666.733 268.785 670.275 265.234 670.275 265.234L660.24 256.948C660.24 256.948 659.697 257.333 658.819 258.046C653.836 262.091 638.07 276.683 649.614 291.275C663.191 308.438 679.13 318.499 692.118 314.948L688.576 282.989Z" fill="#578689"/>
<path d="M701.563 330.336V338.622C701.563 338.622 696.25 348.683 698.021 358.153C699.792 367.622 700.382 372.357 700.382 372.357C700.575 380.41 701.968 388.39 704.514 396.03C708.647 407.867 695.069 485.398 712.189 486.582C729.308 487.765 738.754 488.949 744.067 483.03C749.379 477.112 735.212 375.316 735.212 375.316C735.212 375.316 783.619 476.52 793.654 472.377C803.69 468.235 829.074 458.765 826.122 453.439C823.171 448.112 748.789 329.744 748.789 329.744L746.428 324.418L701.563 330.336Z" fill="#141414"/>
<path d="M729.899 501.969C729.899 501.969 720.453 501.377 720.453 504.337C720.453 507.296 715.731 517.357 715.731 517.357C715.731 517.357 712.189 529.194 721.634 528.01C731.079 526.826 736.983 516.173 736.983 516.173L734.621 504.928L729.899 501.969Z" fill="#141414"/>
<path d="M828.483 481.255C828.483 481.255 820.219 475.928 820.809 479.479C821.4 483.03 821.99 492.5 826.122 493.092C830.254 493.684 842.651 497.235 843.242 498.418C843.832 499.602 858 504.337 858 496.643C858 488.949 849.145 483.03 849.145 483.03L839.109 475.337C839.109 475.337 832.616 474.745 831.435 478.888C830.254 483.03 828.483 481.255 828.483 481.255Z" fill="#141414"/>
<path d="M708.67 231.643C714.083 231.643 718.472 227.244 718.472 221.816C718.472 216.389 714.083 211.99 708.67 211.99C703.257 211.99 698.868 216.389 698.868 221.816C698.868 227.244 703.257 231.643 708.67 231.643Z" fill="#141414"/>
<path d="M697.837 219.23C697.837 216.803 698.733 214.462 700.352 212.658C701.971 210.854 704.199 209.714 706.606 209.459C706.264 209.422 705.919 209.404 705.575 209.404C702.975 209.404 700.482 210.439 698.644 212.282C696.806 214.125 695.773 216.624 695.773 219.23C695.773 221.837 696.806 224.336 698.644 226.179C700.482 228.022 702.975 229.057 705.575 229.057C705.919 229.057 706.264 229.038 706.606 229.002C704.199 228.746 701.971 227.607 700.352 225.803C698.733 223.998 697.837 221.657 697.837 219.23Z" fill="#141414"/>
<path d="M724.389 232.787L710.997 225.754L692.502 228.631L688.676 245.574L698.201 245.207L700.862 238.982V245.104L705.257 244.935L707.808 235.025L709.403 245.574L725.027 245.255L724.389 232.787Z" fill="#141414"/>
<path d="M723.588 331.707L702.934 332.267C702.934 332.267 685.31 335.705 686.299 328.574C687.287 321.442 704.481 323.936 704.481 323.936L723.3 321.058L723.588 331.707Z" fill="#FBBEBE"/>
<path d="M739.929 264.823C740.967 264.665 742.027 264.884 742.919 265.441C743.81 265.997 744.474 266.854 744.791 267.858C748.834 280.632 761.291 323.38 748.914 329.245C734.337 336.152 723.699 335.849 723.699 335.849L718.005 321.794L723.189 316.917L728.723 281.243L731.374 266.122L739.929 264.823Z" fill="#578689"/>
<path opacity="0.4" d="M736.097 288.612L733.736 312.285L713.074 321.163L736.097 315.836V288.612Z" fill="black"/>
<path d="M624.67 210.458C631.325 212.226 637.082 216.419 640.817 222.217L642.748 225.216L642.845 225.34L676.721 235.277C677.342 235.46 677.867 235.879 678.183 236.445C678.498 237.011 678.58 237.679 678.41 238.305L675.78 247.972C675.694 248.287 675.547 248.582 675.347 248.84C675.148 249.098 674.899 249.313 674.616 249.474C674.333 249.635 674.021 249.739 673.697 249.778C673.374 249.818 673.046 249.793 672.733 249.705L638.848 240.21L638.848 240.211L635.444 241.501C629.178 243.876 622.304 244.11 615.892 242.167L624.67 210.458Z" fill="#547175"/>
<path d="M660.345 238.495C660.666 237.396 659.259 236.016 657.203 235.413C655.147 234.81 653.221 235.212 652.9 236.311C652.579 237.41 653.985 238.791 656.041 239.394C658.097 239.997 660.024 239.595 660.345 238.495Z" fill="#578689"/>
<path d="M658.615 239.509C659.4 239.509 660.037 238.871 660.037 238.083C660.037 237.296 659.4 236.657 658.615 236.657C657.829 236.657 657.193 237.296 657.193 238.083C657.193 238.871 657.829 239.509 658.615 239.509Z" fill="#547175"/>
<path d="M627.502 228.77C630.327 220.036 629.423 211.917 625.484 210.637C621.544 209.356 616.06 215.398 613.235 224.132C610.411 232.866 611.314 240.985 615.254 242.265C619.193 243.546 624.677 237.504 627.502 228.77Z" fill="#00ECB9"/>
<path opacity="0.4" d="M626.449 228.461C629.171 220.045 628.431 212.202 624.849 210.496C625.064 210.523 625.277 210.57 625.484 210.636C629.423 211.917 630.327 220.036 627.502 228.77C624.677 237.504 619.193 243.546 615.254 242.265C615.111 242.218 614.971 242.162 614.836 242.097C618.711 242.592 623.773 236.735 626.449 228.461Z" fill="black"/>
<path d="M625.115 210.489L548.232 150.698C534.637 140.049 521.59 128.713 509.143 116.735C487.227 95.7915 457.476 79.0466 422.836 70.1315C338.678 48.4716 272.008 86.8772 241.685 143.27C195.347 229.444 159.835 369.281 365.296 294.846C410.23 278.567 455.714 276.836 490.201 268.262L615.08 242.448L625.115 210.489Z" fill="#00ECB9"/>
<path d="M394.296 109.876C396.579 109.876 398.429 108.022 398.429 105.734C398.429 103.446 396.579 101.591 394.296 101.591C392.014 101.591 390.164 103.446 390.164 105.734C390.164 108.022 392.014 109.876 394.296 109.876Z" fill="#333333"/>
<path d="M474.57 115.309H473.494V114.231H473.284V115.309H472.208V115.52H473.284V116.598H473.494V115.52H474.57V115.309Z" fill="#333333"/>
<path d="M582.6 205.269H581.524V204.191H581.314V205.269H580.239V205.48H581.314V206.558H581.524V205.48H582.6V205.269Z" fill="#333333"/>
<path d="M574.926 233.085H573.85V232.007H573.64V233.085H572.564V233.296H573.64V234.374H573.85V233.296H574.926V233.085Z" fill="#333333"/>
<path d="M244.932 256.759H243.856V255.68H243.646V256.759H242.57V256.969H243.646V258.048H243.856V256.969H244.932V256.759Z" fill="#333333"/>
<path d="M292.158 127.738H291.082V126.66H290.872V127.738H289.797V127.949H290.872V129.027H291.082V127.949H292.158V127.738Z" fill="#333333"/>
<path d="M475.75 237.82H474.675V236.742H474.465V237.82H473.389V238.031H474.465V239.109H474.675V238.031H475.75V237.82Z" fill="#333333"/>
<path d="M362.997 89.8604H361.922V88.782H361.712V89.8604H360.636V90.0711H361.712V91.1494H361.922V90.0711H362.997V89.8604Z" fill="#333333"/>
<path d="M363.411 175.072L362.071 175.279C362.49 177.966 362.821 180.712 363.063 183.429L364.414 183.31C364.172 180.558 363.836 177.789 363.411 175.072Z" fill="#333333"/>
<path d="M359.745 158.891L358.446 159.288C359.231 161.892 359.934 164.561 360.53 167.218L361.858 166.917C361.25 164.23 360.536 161.531 359.745 158.891Z" fill="#333333"/>
<path d="M353.895 143.373L352.661 143.941C353.794 146.421 354.857 148.966 355.819 151.511L357.088 151.032C356.114 148.457 355.046 145.877 353.895 143.373Z" fill="#333333"/>
<path d="M345.984 128.826L344.839 129.554C346.297 131.85 347.696 134.229 348.995 136.614L350.187 135.963C348.877 133.549 347.46 131.146 345.984 128.826Z" fill="#333333"/>
<path d="M336.149 115.492L335.116 116.374C336.876 118.445 338.588 120.611 340.205 122.801L341.291 121.99C339.662 119.777 337.932 117.587 336.149 115.492Z" fill="#333333"/>
<path d="M324.591 103.619L323.688 104.631C325.718 106.448 327.708 108.36 329.603 110.307L330.577 109.354C328.658 107.384 326.645 105.454 324.591 103.619Z" fill="#333333"/>
<path d="M311.533 93.428L310.771 94.5525C313.026 96.0735 315.258 97.6951 317.401 99.37L318.239 98.2988C316.066 96.6062 313.811 94.9668 311.533 93.428Z" fill="#333333"/>
<path d="M299.649 86.3496V87.8884C301.06 88.6282 302.459 89.4035 303.829 90.1966L304.508 89.0188C302.914 88.0955 301.294 87.2058 299.649 86.3496Z" fill="#333333"/>
<path d="M363.502 191.824L364.859 191.8C364.884 193.173 364.886 194.554 364.865 195.905L363.508 195.884C363.529 194.549 363.527 193.183 363.502 191.824Z" fill="#333333"/>
<path d="M283.716 291.664L282.376 291.871C282.795 294.558 283.126 297.304 283.368 300.021L284.72 299.903C284.478 297.151 284.141 294.381 283.716 291.664Z" fill="#333333"/>
<path d="M280.05 275.483L278.752 275.88C279.537 278.484 280.239 281.153 280.836 283.811L282.164 283.509C281.556 280.822 280.842 278.123 280.05 275.483Z" fill="#333333"/>
<path d="M274.2 259.965L272.967 260.533C274.1 263.013 275.163 265.558 276.125 268.103L277.394 267.624C276.42 265.049 275.351 262.469 274.2 259.965Z" fill="#333333"/>
<path d="M266.29 245.418L265.145 246.146C266.603 248.442 268.002 250.821 269.301 253.207L270.493 252.556C269.183 250.141 267.766 247.738 266.29 245.418Z" fill="#333333"/>
<path d="M256.455 232.084L255.422 232.966C257.181 235.037 258.893 237.203 260.511 239.393L261.597 238.582C259.967 236.369 258.238 234.179 256.455 232.084Z" fill="#333333"/>
<path d="M244.896 220.212L243.993 221.224C246.024 223.041 248.013 224.952 249.908 226.899L250.882 225.947C248.964 223.976 246.951 222.046 244.896 220.212Z" fill="#333333"/>
<path d="M231.838 210.02L231.077 211.145C233.332 212.666 235.563 214.287 237.706 215.962L238.544 214.891C236.372 213.198 234.117 211.559 231.838 210.02Z" fill="#333333"/>
<path d="M219.955 202.942V204.481C221.366 205.22 222.765 205.996 224.134 206.789L224.813 205.611C223.219 204.688 221.6 203.798 219.955 202.942Z" fill="#333333"/>
<path d="M283.808 308.417L285.165 308.392C285.19 309.766 285.192 311.147 285.17 312.497L283.814 312.476C283.834 311.141 283.832 309.775 283.808 308.417Z" fill="#333333"/>
<path d="M556.448 233.072L555.108 233.279C555.528 235.966 555.858 238.712 556.1 241.429L557.452 241.311C557.21 238.559 556.873 235.789 556.448 233.072Z" fill="#333333"/>
<path d="M552.782 216.891L551.484 217.288C552.269 219.892 552.971 222.561 553.568 225.219L554.896 224.917C554.288 222.23 553.574 219.531 552.782 216.891Z" fill="#333333"/>
<path d="M546.932 201.373L545.699 201.942C546.832 204.421 547.895 206.966 548.857 209.511L550.126 209.032C549.152 206.457 548.083 203.877 546.932 201.373Z" fill="#333333"/>
<path d="M539.022 186.826L537.877 187.554C539.335 189.85 540.734 192.229 542.033 194.615L543.225 193.964C541.915 191.549 540.498 189.146 539.022 186.826Z" fill="#333333"/>
<path d="M529.187 173.492L528.154 174.374C529.913 176.445 531.625 178.611 533.243 180.801L534.329 179.99C532.699 177.777 530.97 175.587 529.187 173.492Z" fill="#333333"/>
<path d="M517.628 161.62L516.725 162.632C518.756 164.449 520.745 166.36 522.64 168.307L523.614 167.355C521.696 165.384 519.683 163.454 517.628 161.62Z" fill="#333333"/>
<path d="M504.57 151.428L503.809 152.553C506.064 154.074 508.295 155.695 510.438 157.37L511.276 156.299C509.104 154.606 506.849 152.967 504.57 151.428Z" fill="#333333"/>
<path d="M492.687 144.35V145.889C494.098 146.628 495.497 147.404 496.867 148.197L497.545 147.019C495.952 146.096 494.332 145.206 492.687 144.35Z" fill="#333333"/>
<path d="M556.54 249.825L557.897 249.8C557.922 251.174 557.924 252.555 557.902 253.905L556.546 253.884C556.566 252.549 556.564 251.183 556.54 249.825Z" fill="#333333"/>
<path d="M294.133 182.306H293.133V181.302H292.937V182.306H291.936V182.501H292.937V183.505H293.133V182.501H294.133V182.306Z" fill="#333333"/>
<path d="M282.598 242.884H281.597V241.881H281.402V242.884H280.4V243.08H281.402V244.083H281.597V243.08H282.598V242.884Z" fill="#333333"/>
<path d="M248.75 295.976H247.749V294.973H247.553V295.976H246.553V296.172H247.553V297.176H247.749V296.172H248.75V295.976Z" fill="#333333"/>
<path d="M342.908 228.639C333.231 214.217 329.029 196.796 331.064 179.534C333.1 162.273 341.238 146.314 354.004 134.552C366.769 122.79 383.316 116.004 400.644 115.424C417.972 114.844 434.933 120.509 448.452 131.392C461.971 142.274 471.153 157.653 474.332 174.741C477.511 191.828 474.477 209.491 465.78 224.528C457.083 239.565 443.299 250.979 426.928 256.701C410.557 262.423 392.683 262.074 376.546 255.717C375.5 259.46 373.544 262.885 370.854 265.685C368.164 268.485 364.823 270.572 361.131 271.76C357.439 272.948 353.51 273.2 349.697 272.493C345.884 271.785 342.306 270.141 339.282 267.707C336.258 265.273 333.884 262.125 332.371 258.546C330.858 254.966 330.255 251.066 330.614 247.195C330.973 243.324 332.284 239.603 334.43 236.365C336.575 233.126 339.489 230.472 342.908 228.639Z" fill="#333333"/>
<path d="M402.655 146.524C419.275 146.524 430.71 155.766 430.71 169.052C430.71 177.85 426.455 183.937 418.256 188.781C410.544 193.268 407.929 196.556 407.929 202.244C407.929 202.705 407.839 203.161 407.663 203.587C407.487 204.013 407.229 204.4 406.904 204.726C406.579 205.052 406.193 205.311 405.768 205.487C405.343 205.663 404.888 205.754 404.428 205.754H395.931C395.024 205.754 394.152 205.401 393.499 204.769C392.846 204.137 392.464 203.276 392.432 202.366L392.417 201.933C391.664 192.78 394.855 187.092 402.877 182.382C410.367 177.894 413.514 175.051 413.514 169.541C413.514 164.031 408.195 159.988 401.592 159.988C396.572 159.988 392.6 162.437 390.778 166.436C390.138 167.79 389.124 168.931 387.857 169.726C386.59 170.52 385.122 170.934 383.628 170.918C377.871 170.918 374.068 164.78 376.76 159.679C381.019 151.609 390.005 146.524 402.655 146.524ZM390.999 222.683C390.999 217.574 395.254 213.53 400.484 213.53C405.758 213.53 410.012 217.529 410.012 222.683C410.012 227.838 405.758 231.837 400.484 231.837C395.209 231.837 390.999 227.838 390.999 222.683Z" fill="#00ECB9"/>
</g>
<path d="M570 0H859V24C859 40.5685 845.569 54 829 54H600C583.431 54 570 40.5685 570 24V0Z" fill="#00ECB9"/>
<path d="M612.256 21.2H615.376V38H612.256V21.2ZM635.808 25.04C637.424 25.04 638.704 25.512 639.648 26.456C640.592 27.384 641.064 28.784 641.064 30.656V38H638.064V31.04C638.064 29.92 637.816 29.08 637.32 28.52C636.824 27.944 636.112 27.656 635.184 27.656C634.176 27.656 633.368 27.992 632.76 28.664C632.152 29.32 631.848 30.264 631.848 31.496V38H628.848V31.04C628.848 29.92 628.6 29.08 628.104 28.52C627.608 27.944 626.896 27.656 625.968 27.656C624.944 27.656 624.128 27.984 623.52 28.64C622.928 29.296 622.632 30.248 622.632 31.496V38H619.632V25.184H622.488V26.816C622.968 26.24 623.568 25.8 624.288 25.496C625.008 25.192 625.808 25.04 626.688 25.04C627.648 25.04 628.496 25.224 629.232 25.592C629.984 25.944 630.576 26.472 631.008 27.176C631.536 26.504 632.216 25.984 633.048 25.616C633.88 25.232 634.8 25.04 635.808 25.04ZM649.794 25.04C651.682 25.04 653.122 25.496 654.114 26.408C655.122 27.304 655.626 28.664 655.626 30.488V38H652.794V36.44C652.426 37 651.898 37.432 651.21 37.736C650.538 38.024 649.722 38.168 648.762 38.168C647.802 38.168 646.962 38.008 646.242 37.688C645.522 37.352 644.962 36.896 644.562 36.32C644.178 35.728 643.986 35.064 643.986 34.328C643.986 33.176 644.41 32.256 645.258 31.568C646.122 30.864 647.474 30.512 649.314 30.512H652.626V30.32C652.626 29.424 652.354 28.736 651.81 28.256C651.282 27.776 650.49 27.536 649.434 27.536C648.714 27.536 648.002 27.648 647.298 27.872C646.61 28.096 646.026 28.408 645.546 28.808L644.37 26.624C645.042 26.112 645.85 25.72 646.794 25.448C647.738 25.176 648.738 25.04 649.794 25.04ZM649.386 35.984C650.138 35.984 650.802 35.816 651.378 35.48C651.97 35.128 652.386 34.632 652.626 33.992V32.504H649.53C647.802 32.504 646.938 33.072 646.938 34.208C646.938 34.752 647.154 35.184 647.586 35.504C648.018 35.824 648.618 35.984 649.386 35.984ZM672.313 25.184V36.056C672.313 40.568 670.009 42.824 665.401 42.824C664.169 42.824 663.001 42.664 661.897 42.344C660.793 42.04 659.881 41.592 659.161 41L660.505 38.744C661.065 39.208 661.769 39.576 662.617 39.848C663.481 40.136 664.353 40.28 665.233 40.28C666.641 40.28 667.673 39.96 668.329 39.32C668.985 38.68 669.313 37.704 669.313 36.392V35.72C668.801 36.28 668.177 36.704 667.441 36.992C666.705 37.28 665.897 37.424 665.017 37.424C663.801 37.424 662.697 37.168 661.705 36.656C660.729 36.128 659.953 35.392 659.377 34.448C658.817 33.504 658.537 32.424 658.537 31.208C658.537 29.992 658.817 28.92 659.377 27.992C659.953 27.048 660.729 26.32 661.705 25.808C662.697 25.296 663.801 25.04 665.017 25.04C665.945 25.04 666.785 25.192 667.537 25.496C668.305 25.8 668.945 26.264 669.457 26.888V25.184H672.313ZM665.473 34.88C666.609 34.88 667.537 34.544 668.257 33.872C668.993 33.184 669.361 32.296 669.361 31.208C669.361 30.136 668.993 29.264 668.257 28.592C667.537 27.92 666.609 27.584 665.473 27.584C664.321 27.584 663.377 27.92 662.641 28.592C661.921 29.264 661.561 30.136 661.561 31.208C661.561 32.296 661.921 33.184 662.641 33.872C663.377 34.544 664.321 34.88 665.473 34.88ZM688.305 31.664C688.305 31.872 688.289 32.168 688.257 32.552H678.201C678.377 33.496 678.833 34.248 679.569 34.808C680.321 35.352 681.249 35.624 682.353 35.624C683.761 35.624 684.921 35.16 685.833 34.232L687.441 36.08C686.865 36.768 686.137 37.288 685.257 37.64C684.377 37.992 683.385 38.168 682.281 38.168C680.873 38.168 679.633 37.888 678.561 37.328C677.489 36.768 676.657 35.992 676.065 35C675.489 33.992 675.201 32.856 675.201 31.592C675.201 30.344 675.481 29.224 676.041 28.232C676.617 27.224 677.409 26.44 678.417 25.88C679.425 25.32 680.561 25.04 681.825 25.04C683.073 25.04 684.185 25.32 685.161 25.88C686.153 26.424 686.921 27.2 687.465 28.208C688.025 29.2 688.305 30.352 688.305 31.664ZM681.825 27.44C680.865 27.44 680.049 27.728 679.377 28.304C678.721 28.864 678.321 29.616 678.177 30.56H685.449C685.321 29.632 684.929 28.88 684.273 28.304C683.617 27.728 682.801 27.44 681.825 27.44ZM705.092 25.04C706.708 25.04 708.004 25.512 708.98 26.456C709.956 27.4 710.444 28.8 710.444 30.656V38H707.444V31.04C707.444 29.92 707.18 29.08 706.652 28.52C706.124 27.944 705.372 27.656 704.396 27.656C703.292 27.656 702.42 27.992 701.78 28.664C701.14 29.32 700.82 30.272 700.82 31.52V38H697.82V25.184H700.676V26.84C701.172 26.248 701.796 25.8 702.548 25.496C703.3 25.192 704.148 25.04 705.092 25.04ZM720.126 38.168C718.83 38.168 717.662 37.888 716.622 37.328C715.582 36.768 714.766 35.992 714.174 35C713.598 33.992 713.31 32.856 713.31 31.592C713.31 30.328 713.598 29.2 714.174 28.208C714.766 27.216 715.582 26.44 716.622 25.88C717.662 25.32 718.83 25.04 720.126 25.04C721.438 25.04 722.614 25.32 723.654 25.88C724.694 26.44 725.502 27.216 726.078 28.208C726.67 29.2 726.966 30.328 726.966 31.592C726.966 32.856 726.67 33.992 726.078 35C725.502 35.992 724.694 36.768 723.654 37.328C722.614 37.888 721.438 38.168 720.126 38.168ZM720.126 35.6C721.23 35.6 722.142 35.232 722.862 34.496C723.582 33.76 723.942 32.792 723.942 31.592C723.942 30.392 723.582 29.424 722.862 28.688C722.142 27.952 721.23 27.584 720.126 27.584C719.022 27.584 718.11 27.952 717.39 28.688C716.686 29.424 716.334 30.392 716.334 31.592C716.334 32.792 716.686 33.76 717.39 34.496C718.11 35.232 719.022 35.6 720.126 35.6ZM737.539 37.304C737.187 37.592 736.755 37.808 736.243 37.952C735.747 38.096 735.219 38.168 734.659 38.168C733.251 38.168 732.163 37.8 731.395 37.064C730.627 36.328 730.243 35.256 730.243 33.848V27.68H728.131V25.28H730.243V22.352H733.243V25.28H736.675V27.68H733.243V33.776C733.243 34.4 733.395 34.88 733.699 35.216C734.003 35.536 734.443 35.696 735.019 35.696C735.691 35.696 736.251 35.52 736.699 35.168L737.539 37.304ZM751.848 22.448C750.584 22.448 749.952 23.136 749.952 24.512V25.28H753.48V27.68H750.048V38H747.048V27.68H744.936V25.28H747.048V24.464C747.048 23.088 747.448 22.008 748.248 21.224C749.048 20.424 750.176 20.024 751.632 20.024C752.784 20.024 753.688 20.256 754.344 20.72L753.504 22.976C752.992 22.624 752.44 22.448 751.848 22.448ZM761.072 38.168C759.776 38.168 758.608 37.888 757.568 37.328C756.528 36.768 755.712 35.992 755.12 35C754.544 33.992 754.256 32.856 754.256 31.592C754.256 30.328 754.544 29.2 755.12 28.208C755.712 27.216 756.528 26.44 757.568 25.88C758.608 25.32 759.776 25.04 761.072 25.04C762.384 25.04 763.56 25.32 764.6 25.88C765.64 26.44 766.448 27.216 767.024 28.208C767.616 29.2 767.912 30.328 767.912 31.592C767.912 32.856 767.616 33.992 767.024 35C766.448 35.992 765.64 36.768 764.6 37.328C763.56 37.888 762.384 38.168 761.072 38.168ZM761.072 35.6C762.176 35.6 763.088 35.232 763.808 34.496C764.528 33.76 764.888 32.792 764.888 31.592C764.888 30.392 764.528 29.424 763.808 28.688C763.088 27.952 762.176 27.584 761.072 27.584C759.968 27.584 759.056 27.952 758.336 28.688C757.632 29.424 757.28 30.392 757.28 31.592C757.28 32.792 757.632 33.76 758.336 34.496C759.056 35.232 759.968 35.6 761.072 35.6ZM783.189 25.184V38H780.333V36.368C779.853 36.944 779.253 37.392 778.533 37.712C777.813 38.016 777.037 38.168 776.205 38.168C774.493 38.168 773.141 37.696 772.149 36.752C771.173 35.792 770.685 34.376 770.685 32.504V25.184H773.685V32.096C773.685 33.248 773.941 34.112 774.453 34.688C774.981 35.248 775.725 35.528 776.685 35.528C777.757 35.528 778.605 35.2 779.229 34.544C779.869 33.872 780.189 32.912 780.189 31.664V25.184H783.189ZM794.388 25.04C796.004 25.04 797.3 25.512 798.276 26.456C799.252 27.4 799.74 28.8 799.74 30.656V38H796.74V31.04C796.74 29.92 796.476 29.08 795.948 28.52C795.42 27.944 794.668 27.656 793.692 27.656C792.588 27.656 791.716 27.992 791.076 28.664C790.436 29.32 790.116 30.272 790.116 31.52V38H787.116V25.184H789.972V26.84C790.468 26.248 791.092 25.8 791.844 25.496C792.596 25.192 793.444 25.04 794.388 25.04ZM816.215 20.192V38H813.335V36.344C812.839 36.952 812.223 37.408 811.487 37.712C810.767 38.016 809.967 38.168 809.087 38.168C807.855 38.168 806.743 37.896 805.751 37.352C804.775 36.808 804.007 36.04 803.447 35.048C802.887 34.04 802.607 32.888 802.607 31.592C802.607 30.296 802.887 29.152 803.447 28.16C804.007 27.168 804.775 26.4 805.751 25.856C806.743 25.312 807.855 25.04 809.087 25.04C809.935 25.04 810.711 25.184 811.415 25.472C812.119 25.76 812.719 26.192 813.215 26.768V20.192H816.215ZM809.447 35.6C810.167 35.6 810.815 35.44 811.391 35.12C811.967 34.784 812.423 34.312 812.759 33.704C813.095 33.096 813.263 32.392 813.263 31.592C813.263 30.792 813.095 30.088 812.759 29.48C812.423 28.872 811.967 28.408 811.391 28.088C810.815 27.752 810.167 27.584 809.447 27.584C808.727 27.584 808.079 27.752 807.503 28.088C806.927 28.408 806.471 28.872 806.135 29.48C805.799 30.088 805.631 30.792 805.631 31.592C805.631 32.392 805.799 33.096 806.135 33.704C806.471 34.312 806.927 34.784 807.503 35.12C808.079 35.44 808.727 35.6 809.447 35.6Z" fill="#333333"/>
<defs>
<clipPath id="clip0">
<rect width="652" height="472" fill="white" transform="translate(206 64)"/>
</clipPath>
</defs>
</svg>
