<svg width="420" height="630" viewBox="0 0 420 630" fill="none" xmlns="http://www.w3.org/2000/svg">
<rect width="420" height="630" fill="#0d0d0d"/>
<g clip-path="url(#clip0)">
<path d="M387 315C387.032 338.96 382.182 362.676 372.746 384.7L372.159 386.051C356.198 422.362 328.522 452.272 293.557 470.998C258.591 489.724 218.357 496.184 179.287 489.345C178.224 489.156 177.162 488.961 176.103 488.758C165.155 486.636 154.434 483.475 144.086 479.317C142.405 478.641 140.736 477.941 139.08 477.217C137.948 476.725 136.817 476.217 135.697 475.693C105.041 461.485 79.0855 438.809 60.8902 410.338C42.6949 381.867 33.018 348.788 33 315C33 217.247 112.247 138 210 138C307.753 138 387 217.247 387 315Z" fill="#00ECB9"/>
<path opacity="0.2" d="M179.287 489.345C178.224 489.156 177.162 488.961 176.103 488.758C175.412 468.697 173.039 427.521 164.949 384.397C160.524 360.795 154.381 336.601 145.861 314.974C142.942 307.49 139.608 300.176 135.875 293.064C127.266 276.804 116.824 263.115 104.161 253.841L106.026 251.296C116.557 259.015 126.021 269.851 134.419 283.805C136.938 287.984 139.357 292.442 141.677 297.18C144.164 302.249 146.537 307.63 148.794 313.324C150.234 316.948 151.625 320.698 152.967 324.573C158.811 341.398 163.779 360.596 167.871 382.166C168.777 386.931 169.639 391.813 170.458 396.813C176.799 435.549 178.711 471.362 179.287 489.345Z" fill="#141414"/>
<path opacity="0.2" d="M139.08 477.217C137.948 476.725 136.817 476.217 135.697 475.693C134.602 463.806 132.591 449.059 128.915 435.062C127.305 428.775 125.238 422.614 122.731 416.628C118.536 406.81 113.106 398.462 106.083 393.315L107.947 390.775C115.3 396.158 120.971 404.668 125.354 414.623C130.292 425.84 133.586 438.895 135.78 451.369C137.409 460.632 138.435 469.582 139.08 477.217Z" fill="#141414"/>
<path opacity="0.2" d="M86.5513 253.768C95.2533 253.768 102.308 246.713 102.308 238.011C102.308 229.309 95.2533 222.255 86.5513 222.255C77.8493 222.255 70.7949 229.309 70.7949 238.011C70.7949 246.713 77.8493 253.768 86.5513 253.768Z" fill="#141414"/>
<path opacity="0.2" d="M91.6255 389.403C100.327 389.403 107.382 382.348 107.382 373.646C107.382 364.944 100.327 357.89 91.6255 357.89C82.9234 357.89 75.869 364.944 75.869 373.646C75.869 382.348 82.9234 389.403 91.6255 389.403Z" fill="#141414"/>
<path opacity="0.2" d="M149.105 264.477C145.764 283.328 153.14 300.397 153.14 300.397C153.14 300.397 165.933 286.903 169.274 268.052C172.615 249.201 165.239 232.132 165.239 232.132C165.239 232.132 152.446 245.626 149.105 264.477Z" fill="#141414"/>
<path opacity="0.2" d="M96.7397 309.225C114.72 315.799 132.787 311.58 132.787 311.58C132.787 311.58 121.703 296.701 103.723 290.126C85.7431 283.552 67.6755 287.771 67.6755 287.771C67.6755 287.771 78.7596 302.65 96.7397 309.225Z" fill="#141414"/>
<path opacity="0.2" d="M93.6907 429.334C106.293 433.942 118.975 430.936 118.975 430.936C118.975 430.936 111.224 420.458 98.6213 415.85C86.0187 411.242 73.337 414.248 73.337 414.248C73.337 414.248 81.0881 424.726 93.6907 429.334Z" fill="#141414"/>
<path d="M209.637 354.196C247.746 354.196 278.64 323.302 278.64 285.192C278.64 247.082 247.746 216.188 209.637 216.188C171.527 216.188 140.633 247.082 140.633 285.192C140.633 323.302 171.527 354.196 209.637 354.196Z" fill="#CDE1E1"/>
<path d="M182.682 338.023C182.682 338.023 191.307 378.994 191.307 383.307C191.307 387.62 232.279 407.027 232.279 407.027L268.937 400.558L281.875 361.743C281.875 361.743 260.311 329.398 260.311 316.46L182.682 338.023Z" fill="#CDE1E1"/>
<path d="M372.746 384.7L372.159 386.051C356.198 422.362 328.522 452.272 293.557 470.998C258.591 489.723 218.357 496.184 179.287 489.345C178.224 489.156 177.162 488.961 176.103 488.758C165.155 486.636 154.434 483.475 144.086 479.317C142.405 478.641 140.736 477.941 139.08 477.217C137.948 476.725 136.817 476.217 135.697 475.693C125.539 470.987 115.851 465.327 106.764 458.789L98.5842 435.061L103.182 431.553L112.639 424.332L122.731 416.628L125.354 414.623L164.949 384.397L167.871 382.166L188.451 366.456L188.456 366.45C188.456 366.45 210.712 402.715 243.059 391.932C275.406 381.15 274.699 350.232 274.699 350.232L372.746 384.7Z" fill="#2E3E41"/>
<path d="M149.797 229.598C149.797 229.598 171.705 182.13 213.696 193.084C255.688 204.038 279.422 220.469 281.247 236.901C283.073 253.332 280.335 277.979 280.335 277.979C280.335 277.979 275.77 244.204 246.559 251.507C217.348 258.809 171.705 253.332 171.705 253.332L164.402 319.058C164.402 319.058 156.187 307.191 147.058 314.493C137.93 321.796 120.585 244.204 149.797 229.598Z" fill="#2E3E41"/>
<path d="M144.086 479.317C142.405 478.641 140.736 477.941 139.08 477.217C137.948 476.725 136.817 476.217 135.697 475.693C118.897 467.903 103.42 457.531 89.8285 444.954C94.641 438.397 98.5842 435.062 98.5842 435.062H130.931L135.78 451.369L144.086 479.317Z" fill="#2E3E41"/>
<path d="M344.41 381.15L372.159 386.051C364.733 402.969 354.704 418.619 342.436 432.433L344.41 381.15Z" fill="#2E3E41"/>
<path d="M214.001 243.018C229.518 238.861 242.493 244.581 245.798 256.915C247.987 265.083 245.529 271.8 239.078 278.347C232.995 284.443 231.371 288.15 232.786 293.43C232.901 293.858 232.93 294.305 232.872 294.744C232.813 295.184 232.669 295.607 232.446 295.991C232.224 296.375 231.928 296.712 231.575 296.982C231.222 297.252 230.82 297.45 230.391 297.565L222.458 299.691C221.61 299.918 220.708 299.808 219.942 299.385C219.175 298.961 218.604 298.257 218.348 297.421L218.226 297.022C215.245 288.713 216.81 282.634 223.128 276.254C229.005 270.214 231.235 266.786 229.865 261.671C228.494 256.556 222.522 254.132 216.357 255.784C211.671 257.04 208.571 260.308 207.865 264.476C207.604 265.893 206.942 267.207 205.956 268.261C204.971 269.316 203.704 270.067 202.304 270.426V270.426C196.93 271.867 191.852 267.12 193.097 261.71C195.065 253.152 202.19 246.183 214.001 243.018ZM222.064 316.642C220.793 311.898 223.759 307.08 228.642 305.771C233.566 304.452 238.534 307.1 239.816 311.886C241.098 316.671 238.12 321.448 233.196 322.768C228.272 324.087 223.346 321.428 222.064 316.642V316.642Z" fill="white"/>
</g>
<path d="M65 0H354V24C354 40.5685 340.569 54 324 54H95C78.4315 54 65 40.5685 65 24V0Z" fill="#00ECB9"/>
<path d="M107.256 21.2H110.376V38H107.256V21.2ZM130.808 25.04C132.424 25.04 133.704 25.512 134.648 26.456C135.592 27.384 136.064 28.784 136.064 30.656V38H133.064V31.04C133.064 29.92 132.816 29.08 132.32 28.52C131.824 27.944 131.112 27.656 130.184 27.656C129.176 27.656 128.368 27.992 127.76 28.664C127.152 29.32 126.848 30.264 126.848 31.496V38H123.848V31.04C123.848 29.92 123.6 29.08 123.104 28.52C122.608 27.944 121.896 27.656 120.968 27.656C119.944 27.656 119.128 27.984 118.52 28.64C117.928 29.296 117.632 30.248 117.632 31.496V38H114.632V25.184H117.488V26.816C117.968 26.24 118.568 25.8 119.288 25.496C120.008 25.192 120.808 25.04 121.688 25.04C122.648 25.04 123.496 25.224 124.232 25.592C124.984 25.944 125.576 26.472 126.008 27.176C126.536 26.504 127.216 25.984 128.048 25.616C128.88 25.232 129.8 25.04 130.808 25.04ZM144.794 25.04C146.682 25.04 148.122 25.496 149.114 26.408C150.122 27.304 150.626 28.664 150.626 30.488V38H147.794V36.44C147.426 37 146.898 37.432 146.21 37.736C145.538 38.024 144.722 38.168 143.762 38.168C142.802 38.168 141.962 38.008 141.242 37.688C140.522 37.352 139.962 36.896 139.562 36.32C139.178 35.728 138.986 35.064 138.986 34.328C138.986 33.176 139.41 32.256 140.258 31.568C141.122 30.864 142.474 30.512 144.314 30.512H147.626V30.32C147.626 29.424 147.354 28.736 146.81 28.256C146.282 27.776 145.49 27.536 144.434 27.536C143.714 27.536 143.002 27.648 142.298 27.872C141.61 28.096 141.026 28.408 140.546 28.808L139.37 26.624C140.042 26.112 140.85 25.72 141.794 25.448C142.738 25.176 143.738 25.04 144.794 25.04ZM144.386 35.984C145.138 35.984 145.802 35.816 146.378 35.48C146.97 35.128 147.386 34.632 147.626 33.992V32.504H144.53C142.802 32.504 141.938 33.072 141.938 34.208C141.938 34.752 142.154 35.184 142.586 35.504C143.018 35.824 143.618 35.984 144.386 35.984ZM167.313 25.184V36.056C167.313 40.568 165.009 42.824 160.401 42.824C159.169 42.824 158.001 42.664 156.897 42.344C155.793 42.04 154.881 41.592 154.161 41L155.505 38.744C156.065 39.208 156.769 39.576 157.617 39.848C158.481 40.136 159.353 40.28 160.233 40.28C161.641 40.28 162.673 39.96 163.329 39.32C163.985 38.68 164.313 37.704 164.313 36.392V35.72C163.801 36.28 163.177 36.704 162.441 36.992C161.705 37.28 160.897 37.424 160.017 37.424C158.801 37.424 157.697 37.168 156.705 36.656C155.729 36.128 154.953 35.392 154.377 34.448C153.817 33.504 153.537 32.424 153.537 31.208C153.537 29.992 153.817 28.92 154.377 27.992C154.953 27.048 155.729 26.32 156.705 25.808C157.697 25.296 158.801 25.04 160.017 25.04C160.945 25.04 161.785 25.192 162.537 25.496C163.305 25.8 163.945 26.264 164.457 26.888V25.184H167.313ZM160.473 34.88C161.609 34.88 162.537 34.544 163.257 33.872C163.993 33.184 164.361 32.296 164.361 31.208C164.361 30.136 163.993 29.264 163.257 28.592C162.537 27.92 161.609 27.584 160.473 27.584C159.321 27.584 158.377 27.92 157.641 28.592C156.921 29.264 156.561 30.136 156.561 31.208C156.561 32.296 156.921 33.184 157.641 33.872C158.377 34.544 159.321 34.88 160.473 34.88ZM183.305 31.664C183.305 31.872 183.289 32.168 183.257 32.552H173.201C173.377 33.496 173.833 34.248 174.569 34.808C175.321 35.352 176.249 35.624 177.353 35.624C178.761 35.624 179.921 35.16 180.833 34.232L182.441 36.08C181.865 36.768 181.137 37.288 180.257 37.64C179.377 37.992 178.385 38.168 177.281 38.168C175.873 38.168 174.633 37.888 173.561 37.328C172.489 36.768 171.657 35.992 171.065 35C170.489 33.992 170.201 32.856 170.201 31.592C170.201 30.344 170.481 29.224 171.041 28.232C171.617 27.224 172.409 26.44 173.417 25.88C174.425 25.32 175.561 25.04 176.825 25.04C178.073 25.04 179.185 25.32 180.161 25.88C181.153 26.424 181.921 27.2 182.465 28.208C183.025 29.2 183.305 30.352 183.305 31.664ZM176.825 27.44C175.865 27.44 175.049 27.728 174.377 28.304C173.721 28.864 173.321 29.616 173.177 30.56H180.449C180.321 29.632 179.929 28.88 179.273 28.304C178.617 27.728 177.801 27.44 176.825 27.44ZM200.092 25.04C201.708 25.04 203.004 25.512 203.98 26.456C204.956 27.4 205.444 28.8 205.444 30.656V38H202.444V31.04C202.444 29.92 202.18 29.08 201.652 28.52C201.124 27.944 200.372 27.656 199.396 27.656C198.292 27.656 197.42 27.992 196.78 28.664C196.14 29.32 195.82 30.272 195.82 31.52V38H192.82V25.184H195.676V26.84C196.172 26.248 196.796 25.8 197.548 25.496C198.3 25.192 199.148 25.04 200.092 25.04ZM215.126 38.168C213.83 38.168 212.662 37.888 211.622 37.328C210.582 36.768 209.766 35.992 209.174 35C208.598 33.992 208.31 32.856 208.31 31.592C208.31 30.328 208.598 29.2 209.174 28.208C209.766 27.216 210.582 26.44 211.622 25.88C212.662 25.32 213.83 25.04 215.126 25.04C216.438 25.04 217.614 25.32 218.654 25.88C219.694 26.44 220.502 27.216 221.078 28.208C221.67 29.2 221.966 30.328 221.966 31.592C221.966 32.856 221.67 33.992 221.078 35C220.502 35.992 219.694 36.768 218.654 37.328C217.614 37.888 216.438 38.168 215.126 38.168ZM215.126 35.6C216.23 35.6 217.142 35.232 217.862 34.496C218.582 33.76 218.942 32.792 218.942 31.592C218.942 30.392 218.582 29.424 217.862 28.688C217.142 27.952 216.23 27.584 215.126 27.584C214.022 27.584 213.11 27.952 212.39 28.688C211.686 29.424 211.334 30.392 211.334 31.592C211.334 32.792 211.686 33.76 212.39 34.496C213.11 35.232 214.022 35.6 215.126 35.6ZM232.539 37.304C232.187 37.592 231.755 37.808 231.243 37.952C230.747 38.096 230.219 38.168 229.659 38.168C228.251 38.168 227.163 37.8 226.395 37.064C225.627 36.328 225.243 35.256 225.243 33.848V27.68H223.131V25.28H225.243V22.352H228.243V25.28H231.675V27.68H228.243V33.776C228.243 34.4 228.395 34.88 228.699 35.216C229.003 35.536 229.443 35.696 230.019 35.696C230.691 35.696 231.251 35.52 231.699 35.168L232.539 37.304ZM246.848 22.448C245.584 22.448 244.952 23.136 244.952 24.512V25.28H248.48V27.68H245.048V38H242.048V27.68H239.936V25.28H242.048V24.464C242.048 23.088 242.448 22.008 243.248 21.224C244.048 20.424 245.176 20.024 246.632 20.024C247.784 20.024 248.688 20.256 249.344 20.72L248.504 22.976C247.992 22.624 247.44 22.448 246.848 22.448ZM256.072 38.168C254.776 38.168 253.608 37.888 252.568 37.328C251.528 36.768 250.712 35.992 250.12 35C249.544 33.992 249.256 32.856 249.256 31.592C249.256 30.328 249.544 29.2 250.12 28.208C250.712 27.216 251.528 26.44 252.568 25.88C253.608 25.32 254.776 25.04 256.072 25.04C257.384 25.04 258.56 25.32 259.6 25.88C260.64 26.44 261.448 27.216 262.024 28.208C262.616 29.2 262.912 30.328 262.912 31.592C262.912 32.856 262.616 33.992 262.024 35C261.448 35.992 260.64 36.768 259.6 37.328C258.56 37.888 257.384 38.168 256.072 38.168ZM256.072 35.6C257.176 35.6 258.088 35.232 258.808 34.496C259.528 33.76 259.888 32.792 259.888 31.592C259.888 30.392 259.528 29.424 258.808 28.688C258.088 27.952 257.176 27.584 256.072 27.584C254.968 27.584 254.056 27.952 253.336 28.688C252.632 29.424 252.28 30.392 252.28 31.592C252.28 32.792 252.632 33.76 253.336 34.496C254.056 35.232 254.968 35.6 256.072 35.6ZM278.189 25.184V38H275.333V36.368C274.853 36.944 274.253 37.392 273.533 37.712C272.813 38.016 272.037 38.168 271.205 38.168C269.493 38.168 268.141 37.696 267.149 36.752C266.173 35.792 265.685 34.376 265.685 32.504V25.184H268.685V32.096C268.685 33.248 268.941 34.112 269.453 34.688C269.981 35.248 270.725 35.528 271.685 35.528C272.757 35.528 273.605 35.2 274.229 34.544C274.869 33.872 275.189 32.912 275.189 31.664V25.184H278.189ZM289.388 25.04C291.004 25.04 292.3 25.512 293.276 26.456C294.252 27.4 294.74 28.8 294.74 30.656V38H291.74V31.04C291.74 29.92 291.476 29.08 290.948 28.52C290.42 27.944 289.668 27.656 288.692 27.656C287.588 27.656 286.716 27.992 286.076 28.664C285.436 29.32 285.116 30.272 285.116 31.52V38H282.116V25.184H284.972V26.84C285.468 26.248 286.092 25.8 286.844 25.496C287.596 25.192 288.444 25.04 289.388 25.04ZM311.215 20.192V38H308.335V36.344C307.839 36.952 307.223 37.408 306.487 37.712C305.767 38.016 304.967 38.168 304.087 38.168C302.855 38.168 301.743 37.896 300.751 37.352C299.775 36.808 299.007 36.04 298.447 35.048C297.887 34.04 297.607 32.888 297.607 31.592C297.607 30.296 297.887 29.152 298.447 28.16C299.007 27.168 299.775 26.4 300.751 25.856C301.743 25.312 302.855 25.04 304.087 25.04C304.935 25.04 305.711 25.184 306.415 25.472C307.119 25.76 307.719 26.192 308.215 26.768V20.192H311.215ZM304.447 35.6C305.167 35.6 305.815 35.44 306.391 35.12C306.967 34.784 307.423 34.312 307.759 33.704C308.095 33.096 308.263 32.392 308.263 31.592C308.263 30.792 308.095 30.088 307.759 29.48C307.423 28.872 306.967 28.408 306.391 28.088C305.815 27.752 305.167 27.584 304.447 27.584C303.727 27.584 303.079 27.752 302.503 28.088C301.927 28.408 301.471 28.872 301.135 29.48C300.799 30.088 300.631 30.792 300.631 31.592C300.631 32.392 300.799 33.096 301.135 33.704C301.471 34.312 301.927 34.784 302.503 35.12C303.079 35.44 303.727 35.6 304.447 35.6Z" fill="#333333"/>
<defs>
<clipPath id="clip0">
<rect width="354" height="354" fill="white" transform="translate(33 138)"/>
</clipPath>
</defs>
</svg>
