<svg width="532" height="300" viewBox="0 0 532 300" fill="none" xmlns="http://www.w3.org/2000/svg">
<rect width="532" height="300" fill="#333333"/>
<path d="M264.883 109C280.947 109 292 117.883 292 130.653C292 139.109 287.887 144.96 279.962 149.616C272.508 153.929 269.981 157.09 269.981 162.556C269.981 162.999 269.893 163.438 269.723 163.847C269.553 164.257 269.304 164.629 268.989 164.942C268.675 165.255 268.302 165.504 267.891 165.673C267.481 165.843 267.041 165.93 266.596 165.93H258.384C257.506 165.93 256.664 165.591 256.033 164.983C255.402 164.376 255.032 163.548 255.001 162.674L254.987 162.257C254.259 153.459 257.343 147.993 265.097 143.466C272.337 139.152 275.378 136.419 275.378 131.123C275.378 125.827 270.238 121.941 263.855 121.941C259.003 121.941 255.163 124.295 253.402 128.139C252.783 129.44 251.804 130.537 250.579 131.301C249.354 132.064 247.936 132.462 246.491 132.447V132.447C240.927 132.447 237.251 126.547 239.853 121.644C243.97 113.887 252.655 109 264.883 109ZM253.616 182.202C253.616 177.291 257.728 173.404 262.784 173.404C267.881 173.404 271.994 177.248 271.994 182.202C271.994 187.156 267.881 191 262.783 191C257.686 191 253.616 187.156 253.616 182.202V182.202Z" fill="#141414"/>
<circle cx="266" cy="150" r="63" stroke="#141414" stroke-width="12"/>
</svg>
