<svg width="532" height="300" viewBox="0 0 532 300" fill="none" xmlns="http://www.w3.org/2000/svg">
<rect width="532" height="300" fill="#18324A"/>
<path d="M205.395 189.256C195.718 174.834 191.516 157.412 193.551 140.15C195.587 122.889 203.725 106.93 216.491 95.1683C229.256 83.4064 245.803 76.6203 263.131 76.0405C280.459 75.4607 297.42 81.1257 310.939 92.0081C324.458 102.89 333.64 118.27 336.819 135.357C339.998 152.444 336.964 170.108 328.267 185.144C319.57 200.181 305.786 211.596 289.415 217.317C273.044 223.039 255.17 222.69 239.033 216.333C237.987 220.076 236.031 223.501 233.341 226.301C230.651 229.101 227.31 231.189 223.618 232.377C219.926 233.565 215.997 233.816 212.184 233.109C208.371 232.402 204.793 230.757 201.769 228.323C198.745 225.889 196.371 222.742 194.858 219.162C193.345 215.582 192.742 211.682 193.101 207.812C193.46 203.941 194.771 200.219 196.917 196.981C199.062 193.743 201.976 191.088 205.395 189.256V189.256Z" fill="#00ECB9"/>
<path d="M265.142 107.14C281.762 107.14 293.197 116.383 293.197 129.668C293.197 138.466 288.942 144.554 280.743 149.397C273.031 153.885 270.416 157.173 270.416 162.86C270.416 163.321 270.326 163.778 270.15 164.204C269.974 164.629 269.716 165.016 269.391 165.342C269.066 165.668 268.68 165.927 268.255 166.103C267.83 166.28 267.375 166.37 266.915 166.37H258.418C257.511 166.37 256.639 166.017 255.986 165.385C255.333 164.753 254.951 163.892 254.919 162.983L254.904 162.549C254.151 153.396 257.342 147.708 265.364 142.998C272.854 138.511 276.001 135.667 276.001 130.157C276.001 124.647 270.682 120.604 264.079 120.604C259.059 120.604 255.087 123.053 253.265 127.052C252.625 128.406 251.611 129.548 250.344 130.342C249.077 131.136 247.609 131.55 246.115 131.534V131.534C240.358 131.534 236.555 125.397 239.247 120.295C243.506 112.225 252.492 107.14 265.142 107.14ZM253.486 183.3C253.486 178.19 257.741 174.146 262.971 174.146C268.245 174.146 272.499 178.145 272.499 183.3C272.499 188.454 268.245 192.453 262.97 192.453C257.696 192.453 253.486 188.454 253.486 183.3V183.3Z" fill="white"/>
</svg>
