<svg width="532" height="300" viewBox="0 0 532 300" fill="none" xmlns="http://www.w3.org/2000/svg">
<rect width="532" height="300" fill="#333333"/>
<circle cx="266" cy="150" r="78.1797" stroke="#141414" stroke-width="12"/>
<path fill-rule="evenodd" clip-rule="evenodd" d="M266 160.962C285.236 160.962 300.829 145.369 300.829 126.133C300.829 106.898 285.236 91.3041 266 91.3041C246.765 91.3041 231.171 106.898 231.171 126.133C231.171 145.369 246.765 160.962 266 160.962ZM281.002 114.97C281.002 107.602 274.625 102.476 265.355 102.476C258.3 102.476 253.289 105.296 250.913 109.772C249.412 112.601 251.533 116.005 254.744 116.005C255.577 116.014 256.395 115.784 257.102 115.344C257.809 114.903 258.374 114.27 258.731 113.519C259.747 111.301 261.963 109.943 264.762 109.943C268.445 109.943 271.411 112.185 271.411 115.241C271.411 118.297 269.656 119.874 265.479 122.363C261.005 124.975 259.225 128.129 259.645 133.205L259.654 133.446C259.671 133.95 259.885 134.428 260.249 134.778C260.613 135.129 261.099 135.325 261.605 135.325H266.344C266.6 135.325 266.854 135.274 267.091 135.176C267.328 135.079 267.544 134.935 267.725 134.754C267.906 134.574 268.05 134.359 268.148 134.123C268.246 133.887 268.297 133.634 268.297 133.378C268.297 130.224 269.755 128.4 274.056 125.911C278.629 123.225 281.002 119.849 281.002 114.97ZM264.144 139.637C261.227 139.637 258.854 141.88 258.854 144.713C258.854 147.572 261.203 149.79 264.144 149.79C267.086 149.79 269.458 147.572 269.458 144.713C269.458 141.855 267.086 139.637 264.144 139.637Z" fill="#141414"/>
<path fill-rule="evenodd" clip-rule="evenodd" d="M318.768 215.207V196.362C318.768 182.003 307.128 170.362 292.768 170.362H239.232C224.872 170.362 213.232 182.003 213.232 196.362V215.207C227.644 226.885 246.005 233.881 266 233.881C285.995 233.881 304.356 226.885 318.768 215.207Z" fill="#141414"/>
</svg>
