<svg width="26" height="26" viewBox="0 0 26 26" fill="none" xmlns="http://www.w3.org/2000/svg">
<g clip-path="url(#clip0)">
<rect width="26" height="26" fill="#00ECB9"/>
<path fill-rule="evenodd" clip-rule="evenodd" d="M13 14C15.7614 14 18 11.7614 18 9C18 6.23858 15.7614 4 13 4C10.2386 4 8 6.23858 8 9C8 11.7614 10.2386 14 13 14ZM8 16C5.79086 16 4 17.7909 4 20V30C4 32.2091 5.79086 34 8 34H18C20.2091 34 22 32.2091 22 30V20C22 17.7909 20.2091 16 18 16H8Z" fill="black"/>
</g>
<defs>
<clipPath id="clip0">
<rect width="26" height="26" fill="white"/>
</clipPath>
</defs>
</svg>
