<svg width="26" height="26" viewBox="0 0 26 26" fill="none" xmlns="http://www.w3.org/2000/svg">
<path fill-rule="evenodd" clip-rule="evenodd" d="M13 4.06067C12.1716 4.06067 11.5 4.73224 11.5 5.56067V11.5607L5.5 11.5607C4.67157 11.5607 4 12.2322 4 13.0607C4 13.8891 4.67157 14.5607 5.5 14.5607H11.5V20.5607C11.5 21.3891 12.1716 22.0607 13 22.0607C13.8284 22.0607 14.5 21.3891 14.5 20.5607V14.5607H20.5C21.3284 14.5607 22 13.8891 22 13.0607C22 12.2322 21.3284 11.5607 20.5 11.5607L14.5 11.5607V5.56067C14.5 4.73224 13.8284 4.06067 13 4.06067Z" fill="white"/>
</svg>
