<svg width="26" height="26" viewBox="0 0 26 26" fill="none" xmlns="http://www.w3.org/2000/svg">
<g clip-path="url(#clip0)">
<path fill-rule="evenodd" clip-rule="evenodd" d="M12.1891 6.44397L10.6537 4.20358C10.2565 3.62401 9.40115 3.62401 9.00394 4.20359L6.50313 7.85257C6.3731 8.0423 6.18164 8.18141 5.96101 8.24644L1.71783 9.49726C1.04388 9.69593 0.779567 10.5094 1.20803 11.0663L3.90563 14.5723C4.04589 14.7546 4.11902 14.9796 4.1127 15.2096L3.99108 19.6316C3.97176 20.334 4.66374 20.8367 5.32575 20.6013L9.26686 19.1998L9.32228 17.1044C9.15357 17.1333 8.98674 17.1768 8.82367 17.2347L6.03044 18.228L6.11194 15.2646C6.13091 14.5748 5.91152 13.8995 5.49073 13.3527L3.68291 11.0031L5.9189 10.3439C5.79003 9.41534 6.33103 8.45571 7.31498 8.15405L9.09516 7.6083L9.82881 6.53781L10.3077 7.23657L11.4037 6.90055C11.6991 6.81002 11.9673 6.653 12.1891 6.44397Z" fill="white"/>
<path d="M16.6657 4.76891L19.1665 8.41789C19.4265 8.79735 19.8095 9.07556 20.2507 9.20564L24.4939 10.4565L21.7963 13.9625C21.5158 14.3271 21.3695 14.7772 21.3822 15.2371L21.5038 19.6591L17.3358 18.1769C16.9023 18.0228 16.429 18.0228 15.9956 18.1769L11.8275 19.6591L11.9492 15.2371C11.9618 14.7772 11.8156 14.3271 11.535 13.9625L8.83743 10.4565L13.0806 9.20564C13.5219 9.07556 13.9048 8.79736 14.1648 8.41789L16.6657 4.76891Z" stroke="white" stroke-width="2"/>
</g>
<defs>
<clipPath id="clip0">
<rect width="26" height="26" fill="white"/>
</clipPath>
</defs>
</svg>
